<?xml version="1.0" encoding="utf-8"?>
<!-- Generator: Adobe Illustrator 24.0.0, SVG Export Plug-In . SVG Version: 6.00 Build 0)  -->
<svg version="1.1" id="Layer_1" xmlns="http://www.w3.org/2000/svg" xmlns:xlink="http://www.w3.org/1999/xlink" x="0px" y="0px"
	 viewBox="0 0 24 24" style="enable-background:new 0 0 24 24;" xml:space="preserve">
<style type="text/css">
	.st0{fill:#FFFFFF;}
</style>
<path class="st0" d="M18,14c-1.2,0-2.3,0.6-3.1,1.5l-5.1-2.4c0.2-0.7,0.2-1.5,0-2.3l5.1-2.4c1.4,1.7,3.9,1.9,5.6,0.5
	c1.7-1.4,1.9-3.9,0.5-5.6s-3.9-1.9-5.6-0.5C14.5,3.7,14,4.8,14,6c0,0.2,0,0.5,0.1,0.7L8.8,9.1C7.2,7.6,4.7,7.6,3.1,9.2
	s-1.5,4.1,0.1,5.7c1.6,1.5,4,1.5,5.6,0l5.3,2.4c0,0.2-0.1,0.5-0.1,0.7c0,2.2,1.8,4,4,4s4-1.8,4-4S20.2,14,18,14z M18,4
	c1.1,0,2,0.9,2,2s-0.9,2-2,2s-2-0.9-2-2S16.9,4,18,4z M6,14c-1.1,0-2-0.9-2-2s0.9-2,2-2s2,0.9,2,2S7.1,14,6,14z M18,20
	c-1.1,0-2-0.9-2-2s0.9-2,2-2s2,0.9,2,2S19.1,20,18,20z"/>
</svg>
